<?xml version="1.0" standalone="no"?>
<!DOCTYPE svg PUBLIC "-//W3C//DTD SVG 20010904//EN"
 "http://www.w3.org/TR/2001/REC-SVG-20010904/DTD/svg10.dtd">
<svg version="1.0" xmlns="http://www.w3.org/2000/svg"
 width="512.000000pt" height="512.000000pt" viewBox="0 0 512.000000 512.000000"
 preserveAspectRatio="xMidYMid meet">
<metadata>
Created by potrace 1.14, written by Peter Selinger 2001-2017
</metadata>
<g transform="translate(0.000000,512.000000) scale(0.100000,-0.100000)"
fill="#000000" stroke="none">
<path d="M2620 3984 c-8 -2 -84 -10 -169 -19 -120 -12 -177 -23 -256 -49 -117
-39 -253 -104 -339 -162 -32 -21 -68 -44 -80 -51 -11 -7 -53 -42 -93 -78 -70
-64 -168 -203 -188 -265 -9 -30 -69 -126 -99 -159 -33 -37 -133 -101 -231
-149 -104 -51 -280 -112 -322 -112 -41 0 -73 -26 -73 -58 0 -64 83 -133 280
-233 58 -29 107 -57 108 -61 2 -4 9 -8 16 -8 6 0 34 -15 61 -32 92 -60 172
-107 198 -117 27 -11 60 -52 112 -141 56 -96 163 -207 267 -279 53 -35 83 -82
74 -115 -14 -58 -230 -224 -391 -301 -131 -62 -259 -114 -389 -156 -163 -52
-221 -73 -246 -86 -14 -7 -33 -13 -43 -13 -9 0 -34 -9 -54 -20 -21 -11 -42
-20 -48 -20 -17 0 -115 -43 -215 -94 -83 -42 -135 -72 -260 -148 -16 -9 -57
-37 -92 -62 -34 -25 -82 -58 -105 -73 l-42 -28 -1 -447 0 -448 920 0 919 0 0
138 c-2 291 23 589 66 812 8 41 19 104 24 140 6 36 20 110 31 165 11 55 27
143 34 195 8 52 19 119 25 149 6 29 11 84 11 121 0 107 7 130 41 130 15 0 40
-5 56 -11 93 -36 421 -67 543 -50 210 28 280 41 510 95 111 26 115 25 178 -59
11 -14 94 -142 131 -199 l31 -49 -22 -19 c-21 -18 -123 -70 -245 -123 -35 -15
-63 -32 -63 -36 0 -5 -5 -9 -11 -9 -57 0 -314 -230 -450 -402 -37 -48 -119
-192 -119 -211 0 -8 -4 -17 -8 -19 -19 -7 -53 -189 -54 -283 0 -58 -5 -98 -12
-104 -6 -5 -38 -12 -71 -15 -113 -12 -186 -38 -199 -71 -16 -43 -2 -114 34
-175 5 -8 22 -36 36 -62 l27 -48 1379 0 1378 0 0 1745 c0 1555 -2 1745 -15
1745 -18 0 -155 -66 -240 -115 -33 -19 -82 -47 -110 -61 -152 -81 -313 -201
-535 -401 -87 -78 -182 -153 -219 -172 -30 -16 -50 1 -57 50 -27 180 -59 294
-117 419 -25 52 -48 106 -52 119 -10 34 -163 236 -217 288 -122 118 -324 252
-410 273 -18 5 -46 13 -63 18 -92 30 -136 41 -185 47 -30 4 -87 13 -127 21
-68 13 -119 16 -153 8z m-535 -493 c44 -20 70 -45 61 -59 -3 -6 -23 -13 -43
-17 -76 -13 -117 -57 -154 -164 -25 -71 -24 -115 3 -163 25 -44 53 -62 111
-73 44 -8 52 -18 38 -44 -29 -54 -152 -83 -205 -47 -53 34 -116 160 -116 229
1 57 46 205 78 257 25 39 44 56 84 75 63 29 90 31 143 6z m-910 -714 c12 -6
113 -13 242 -16 122 -4 225 -9 229 -14 4 -4 -1 -13 -11 -21 -49 -35 -422 -19
-540 24 -73 27 -74 27 -44 39 27 11 93 5 124 -12z m2789 -1291 c26 -11 35 -21
39 -47 6 -45 -4 -62 -52 -87 -31 -16 -42 -18 -50 -9 -5 7 -32 21 -59 30 -53
19 -77 15 -119 -22 -33 -28 -32 -103 2 -136 30 -31 98 -34 147 -7 39 21 65 18
73 -9 4 -10 11 -19 16 -19 5 0 9 -9 9 -20 0 -11 -6 -19 -12 -17 -7 1 -15 -13
-19 -33 -15 -86 -25 -93 -141 -94 -54 -1 -72 3 -97 22 -16 12 -39 22 -49 22
-26 0 -100 94 -113 144 -6 22 -18 55 -26 71 -9 17 -19 37 -23 45 -11 22 -52
25 -67 4 -18 -24 -16 -108 3 -152 78 -181 96 -200 244 -268 61 -28 80 -52 80
-102 0 -41 -5 -49 -67 -113 -37 -38 -73 -69 -80 -69 -7 0 -30 -17 -51 -38 -55
-52 -63 -58 -115 -81 -66 -30 -132 -28 -204 8 -89 45 -159 70 -229 82 -76 13
-124 6 -149 -21 -21 -23 -35 -138 -24 -190 17 -75 42 -156 52 -169 13 -15 -15
-41 -45 -41 -10 0 -18 -7 -18 -16 0 -8 -14 -32 -31 -53 l-30 -38 -122 2 c-147
2 -180 15 -232 86 -50 70 -50 91 0 100 22 5 63 8 90 8 59 1 107 27 135 73 16
27 19 51 19 148 0 171 29 259 133 405 135 189 284 334 433 420 73 42 138 75
151 75 6 0 31 13 55 30 25 16 73 36 106 44 34 7 67 17 73 21 36 22 317 31 364
11z m26 -835 c0 -31 -49 -75 -74 -65 -13 5 -13 9 1 32 26 42 55 72 64 66 5 -3
9 -18 9 -33z"/>
</g>
</svg>
